<svg width="18" height="17" viewBox="0 0 18 17" fill="none" xmlns="http://www.w3.org/2000/svg">
<path d="M15.677 16.6071L9.96198 10.8911C7.41965 12.6986 3.91642 12.2565 1.90285 9.87407C-0.110711 7.49165 0.0371394 3.96373 2.24298 1.75814C4.44824 -0.448412 7.97651 -0.596902 10.3594 1.41656C12.7422 3.43002 13.1846 6.93359 11.377 9.47614L17.092 15.1921L15.678 16.6061L15.677 16.6071ZM6.48498 2.00013C4.58868 1.9997 2.95267 3.33082 2.56745 5.18758C2.18224 7.04434 3.15369 8.91641 4.89366 9.67038C6.63362 10.4243 8.66388 9.85297 9.75522 8.30219C10.8466 6.75141 10.699 4.64746 9.40198 3.26414L10.007 3.86414L9.32498 3.18414L9.31298 3.17214C8.56477 2.41932 7.54637 1.99727 6.48498 2.00013Z" fill="#ADB5BD"/>
</svg>
