<svg width="28" height="24" viewBox="0 0 28 24" fill="none" xmlns="http://www.w3.org/2000/svg">
<path d="M9.99984 0C6.31794 0 3.33317 2.98477 3.33317 6.66667C3.33317 10.3486 6.31794 13.3333 9.99984 13.3333C13.6817 13.3333 16.6665 10.3486 16.6665 6.66667C16.6665 2.98477 13.6817 0 9.99984 0ZM5.99984 6.66667C5.99984 4.45753 7.7907 2.66667 9.99984 2.66667C12.209 2.66667 13.9998 4.45753 13.9998 6.66667C13.9998 8.87581 12.209 10.6667 9.99984 10.6667C7.7907 10.6667 5.99984 8.87581 5.99984 6.66667Z" fill="#29183B"/>
<path d="M20.5444 6.9577C20.1693 6.76645 19.7542 6.66675 19.3332 6.66675V4.00008C20.1753 4.00008 21.0055 4.19942 21.7557 4.58193C21.8383 4.62406 21.9197 4.66828 21.9998 4.71453C22.647 5.08818 23.2094 5.59425 23.6496 6.20074C24.1442 6.8823 24.4704 7.67129 24.6015 8.50316C24.7326 9.33502 24.6648 10.1861 24.4037 10.9867C24.1427 11.7874 23.6957 12.5148 23.0995 13.1095C22.5032 13.7042 21.7746 14.1492 20.9733 14.4082C20.2602 14.6387 19.5076 14.7159 18.7646 14.6363C18.6726 14.6264 18.5808 14.6141 18.4892 14.5995C17.6582 14.4663 16.8706 14.1384 16.1907 13.6425L16.1893 13.6415L17.7612 11.4874C18.1013 11.7356 18.4954 11.8997 18.9112 11.9663C19.3269 12.033 19.7526 12.0002 20.1532 11.8707C20.5539 11.7412 20.9181 11.5187 21.2163 11.2214C21.5144 10.924 21.7378 10.5603 21.8684 10.16C21.9989 9.7597 22.0328 9.33418 21.9673 8.91826C21.9017 8.50234 21.7386 8.10785 21.4913 7.76708C21.244 7.42632 20.9195 7.14896 20.5444 6.9577Z" fill="#29183B"/>
<path d="M24.664 24C24.664 23.3 24.5261 22.6068 24.2582 21.96C23.9903 21.3132 23.5976 20.7256 23.1026 20.2306C22.6076 19.7355 22.0199 19.3429 21.3732 19.075C20.7264 18.8071 20.0332 18.6692 19.3332 18.6692V16C20.2426 16 21.1443 16.1551 21.9998 16.4575C22.1326 16.5045 22.2642 16.555 22.3946 16.609C23.3652 17.011 24.2472 17.6003 24.99 18.3431C25.7329 19.086 26.3222 19.9679 26.7242 20.9385C26.7782 21.0689 26.8287 21.2006 26.8756 21.3333C27.1781 22.1888 27.3332 23.0906 27.3332 24H24.664Z" fill="#29183B"/>
<path d="M19.3332 24H16.6665C16.6665 20.3181 13.6817 17.3333 9.99984 17.3333C6.31794 17.3333 3.33317 20.3181 3.33317 24H0.666504C0.666504 18.8453 4.84518 14.6667 9.99984 14.6667C15.1545 14.6667 19.3332 18.8453 19.3332 24Z" fill="#29183B"/>
</svg>
