<svg width="19" height="19" viewBox="0 0 19 19" fill="none" xmlns="http://www.w3.org/2000/svg">
<path d="M1.41999 18.5792C1.13948 18.5787 0.872062 18.4604 0.682993 18.2532C0.490439 18.0476 0.394758 17.7697 0.419993 17.4892L0.664993 14.7951L11.983 3.48115L15.52 7.01715L4.20499 18.3302L1.51099 18.5752C1.47999 18.5782 1.44899 18.5792 1.41999 18.5792ZM16.226 6.31015L12.69 2.77415L14.811 0.65315C14.9986 0.465373 15.2531 0.359863 15.5185 0.359863C15.7839 0.359863 16.0384 0.465373 16.226 0.65315L18.347 2.77415C18.5348 2.96172 18.6403 3.21624 18.6403 3.48165C18.6403 3.74706 18.5348 4.00158 18.347 4.18915L16.227 6.30915L16.226 6.31015Z" fill="#29183B"/>
</svg>
