<svg width="262" height="271" viewBox="0 0 262 271" fill="none" xmlns="http://www.w3.org/2000/svg">
<g clip-path="url(#clip0_172_2)">
<path d="M62.6254 43H62.6252C30.1887 43 3.8938 69.2949 3.8938 101.731V101.732C3.8938 134.168 30.1887 160.463 62.6252 160.463H62.6254C95.0619 160.463 121.357 134.168 121.357 101.732V101.731C121.357 69.2949 95.0619 43 62.6254 43Z" fill="#CDE1FD"/>
<mask id="mask0_172_2" style="mask-type:luminance" maskUnits="userSpaceOnUse" x="87" y="43" width="54" height="29">
<path d="M87.978 43H140.978V71.6703H87.978V43Z" fill="white"/>
</mask>
<g mask="url(#mask0_172_2)">
<path d="M94.8317 71.6701L101.685 65.6162H94.6946L94.8317 71.6701Z" fill="#9A41FE"/>
<path d="M131.53 66.3018H97.4269C92.2086 66.3018 87.9783 62.0715 87.9783 56.8531V52.4487C87.9783 47.2303 92.2086 43 97.4269 43H131.53C136.748 43 140.978 47.2303 140.978 52.4487V56.8531C140.978 62.0715 136.748 66.3018 131.53 66.3018Z" fill="#9A41FE"/>
<path d="M107.396 56.7068C106.261 56.7068 105.34 55.7863 105.34 54.6508C105.34 53.5153 106.261 52.5947 107.396 52.5947C108.532 52.5947 109.452 53.5153 109.452 54.6508C109.452 55.7863 108.532 56.7068 107.396 56.7068Z" fill="white"/>
<path d="M114.478 56.7068C113.343 56.7068 112.422 55.7863 112.422 54.6508C112.422 53.5153 113.343 52.5947 114.478 52.5947C115.614 52.5947 116.534 53.5153 116.534 54.6508C116.534 55.7863 115.614 56.7068 114.478 56.7068Z" fill="white"/>
<path d="M121.56 56.7068C120.425 56.7068 119.504 55.7863 119.504 54.6508C119.504 53.5153 120.425 52.5947 121.56 52.5947C122.696 52.5947 123.616 53.5153 123.616 54.6508C123.616 55.7863 122.696 56.7068 121.56 56.7068Z" fill="white"/>
</g>
<path d="M127.264 142.517L118.17 139.322L111.209 159.134L120.302 162.329L127.264 142.517Z" fill="#1F161E"/>
<path d="M132.978 238.212C133.37 238.829 135.457 242.541 136.613 242.921C138.707 243.602 149.546 239.693 149.838 239.177C150.13 238.66 149.964 237.806 149.353 237.732C148.741 237.659 143.903 238.391 143.119 238.286C142.335 238.18 140.521 236.914 140.308 236" fill="#EDEDED"/>
<path d="M0.978271 181.244C0.978271 206.183 12.1724 211.42 23.3078 211.42C51.5145 211.42 88.2112 195.385 90.2833 194.767C89.6317 197.39 85.5202 263.885 85.5202 264.268C86.4976 264.809 93.9907 265.275 96.5123 264.809C97.1639 263.192 116.978 184.103 116.978 182.02C116.978 179.937 115.271 176.769 108.814 176.312C106.084 176.118 68.1036 175 68.1036 175" fill="#EDEDED"/>
<path d="M95.8657 164C104.364 172.746 142.313 233.799 141.976 235.226C141.639 236.653 132.914 239.678 131.07 238.863C123.244 235.434 75.1988 177.81 73.3283 176.94C71.4577 176.07 68.6551 176.406 66.9852 176.645C62.6421 171.513 72.3639 165.418 95.8657 164Z" fill="#F5ECFF"/>
<path d="M57.5023 94.2661C70.2797 94.2661 73.9537 106.365 75.0108 110.933C78.3912 125.518 68.9811 180.94 67.8913 182.468C58.6443 195.395 5.78609 196.543 0.630776 190.944C-4.52454 185.345 22.5898 94.2661 57.5023 94.2661Z" fill="#8207E8"/>
<path d="M86.9755 264C86.8041 264.63 85.5117 268.318 86.1579 269.039C87.3184 270.343 99.3917 271.242 100.051 270.942C100.71 270.642 101.258 269.908 100.822 269.639C100.387 269.37 95.8112 268.162 95.2508 267.788C94.6903 267.415 94.2221 265.755 94.7958 264.956" fill="#EDEDED"/>
<path d="M55.5903 96.8175C55.2445 97.9269 64.263 100.733 64.6089 99.6301L68.1066 88.4058L59.0946 85.5933L55.5903 96.8175Z" fill="#F8CDBA"/>
<path d="M64.5305 91.0618C63.6496 90.7877 57.2478 91.5251 56.8171 92.9086L59.0946 85.5933C60.4976 86.0305 64.5305 91.0618 64.5305 91.0618Z" fill="#1F161E"/>
<path d="M69.5619 92.8631C76.8746 92.8631 82.8026 86.9351 82.8026 79.6225C82.8026 72.3098 76.8746 66.3818 69.5619 66.3818C62.2493 66.3818 56.3213 72.3098 56.3213 79.6225C56.3213 86.9351 62.2493 92.8631 69.5619 92.8631Z" fill="#F8CDBA"/>
<path d="M82.7687 86.5975C82.9673 85.961 82.1354 85.1352 80.9106 84.753C79.6858 84.3709 78.532 84.577 78.3333 85.2135C78.1347 85.85 78.9666 86.6758 80.1914 87.058C81.4162 87.4401 82.5701 87.234 82.7687 86.5975Z" fill="#FA9E9F"/>
<path d="M68.8465 82.2562C69.0451 81.6197 68.2132 80.7939 66.9884 80.4117C65.7636 80.0296 64.6097 80.2357 64.4111 80.8722C64.2125 81.5087 65.0444 82.3345 66.2692 82.7166C67.494 83.0988 68.6479 82.8927 68.8465 82.2562Z" fill="#FA9E9F"/>
<path d="M75.8984 81.8345C76.1268 82.5523 77.4842 85.6977 74.9326 86.0044" stroke="#29183B" stroke-width="1.2" stroke-miterlimit="10" stroke-linecap="round"/>
<path d="M69.5554 87.5053C68.9028 87.2769 68.1197 86.1545 67.813 85.2344" stroke="#29183B" stroke-width="1.2" stroke-miterlimit="10" stroke-linecap="round"/>
<path d="M73.5686 62.2509C70.0774 61.8137 59.9429 58.7988 57.6394 56.7041C56.5496 57.2783 52.3144 61.0828 48.8623 66.2316L53.7631 71.1585L47.5702 68.3003C45.9381 70.9746 44.8163 73.9285 44.2617 77.0121C45.8605 81.3256 50.8787 83.1006 51.825 83.218C57.9265 83.9881 60.2692 74.5062 63.3428 73.3316C68.5634 71.3282 74.7106 76.5292 82.4436 76.2029C84.1599 72.6986 81.9281 63.3016 73.5686 62.2509Z" fill="#1F161E"/>
<path d="M57.424 80.4902C59.1143 80.4902 60.4846 79.12 60.4846 77.4297C60.4846 75.7394 59.1143 74.3691 57.424 74.3691C55.7337 74.3691 54.3635 75.7394 54.3635 77.4297C54.3635 79.12 55.7337 80.4902 57.424 80.4902Z" fill="#F8CDBA"/>
<path d="M44.2616 125.302C43.609 129.387 41.4947 167.961 46.5586 171.713C57.4043 179.746 107.489 169.919 115.079 167.106C115.901 164.417 115.079 155.875 115.079 155.875C112.155 155.758 75.2717 155.405 73.0726 152.612C70.8734 149.819 70.6124 126.986 70.9648 124.408" fill="#8207E8"/>
<path d="M120.182 168C124.099 168 127.275 164.824 127.275 160.907C127.275 156.989 124.099 153.813 120.182 153.813C116.264 153.813 113.088 156.989 113.088 160.907C113.088 164.824 116.264 168 120.182 168Z" fill="#F8CDBA"/>
<path d="M73.0662 152.632C70.8409 149.819 70.606 127.005 70.9584 124.428" stroke="#29183B" stroke-linecap="round" stroke-linejoin="round"/>
<path d="M69.601 174.611C59.3818 175.178 50.4481 174.611 46.5588 171.713C44.34 170.075 43.4982 161.768 43.2959 152.599" stroke="#29183B" stroke-linecap="round" stroke-linejoin="round"/>
<mask id="mask1_172_2" style="mask-type:luminance" maskUnits="userSpaceOnUse" x="162" y="0" width="100" height="100">
<path d="M262 50C262 22.3858 239.614 0 212 0C184.386 0 162 22.3858 162 50C162 77.6142 184.386 100 212 100C239.614 100 262 77.6142 262 50Z" fill="white"/>
</mask>
<g mask="url(#mask1_172_2)">
<path d="M262 50C262 22.3858 239.614 0 212 0C184.386 0 162 22.3858 162 50C162 77.6142 184.386 100 212 100C239.614 100 262 77.6142 262 50Z" fill="#CDE1FD"/>
<mask id="mask2_172_2" style="mask-type:luminance" maskUnits="userSpaceOnUse" x="169" y="22" width="112" height="220">
<path d="M280.333 22.2222H169.222V241.745H280.333V22.2222Z" fill="white"/>
</mask>
<g mask="url(#mask2_172_2)">
<path d="M176.094 56.6804C174.972 55.8937 170.218 50.113 169.657 48.1702C169.096 46.2273 168.675 38.9037 174.221 40.5683C179.767 42.233 177.263 48.1006 181.175 51.7994" fill="#F8CDBA"/>
<path d="M174.238 35.3286L169.221 39.3337L177.947 50.2646L182.964 46.2595L174.238 35.3286Z" fill="#1F161E"/>
<path d="M244.802 51.7993C246.166 53.0685 260.123 76.5737 260.123 79.5162C260.123 82.4588 256.902 100.305 255.05 104.112C253.199 107.92 244.802 51.7993 244.802 51.7993Z" fill="#1F161E"/>
<path d="M236.591 45.2583C256.68 45.2583 259.306 116.052 257.889 118.899C256.472 121.746 221.344 121.416 218.497 118.899C215.65 116.382 218.115 45.2583 236.591 45.2583Z" fill="#9A41FE"/>
<path d="M232.979 47.6223C232.979 48.8827 239.934 48.9783 239.934 47.6223V39.1729H232.979V47.6223Z" fill="#F8CDBA"/>
<path d="M239.942 44.2105C239.942 43.4586 238.204 40.8638 236.9 41.3028C238.538 40.7247 239.347 38.7515 239.942 39.1557V44.2105Z" fill="#29183B"/>
<path d="M233.371 42.0155C238.366 42.0155 242.415 37.966 242.415 32.9706C242.415 27.9753 238.366 23.9258 233.371 23.9258C228.375 23.9258 224.326 27.9753 224.326 32.9706C224.326 37.966 228.375 42.0155 233.371 42.0155Z" fill="#F8CDBA"/>
<path d="M224.226 34.9699C225.059 34.9699 225.734 34.6177 225.734 34.1832C225.734 33.7487 225.059 33.3965 224.226 33.3965C223.393 33.3965 222.718 33.7487 222.718 34.1832C222.718 34.6177 223.393 34.9699 224.226 34.9699Z" fill="#FA9E9F"/>
<path d="M233.71 34.9699C234.543 34.9699 235.218 34.6177 235.218 34.1832C235.218 33.7487 234.543 33.3965 233.71 33.3965C232.877 33.3965 232.201 33.7487 232.201 34.1832C232.201 34.6177 232.877 34.9699 233.71 34.9699Z" fill="#FA9E9F"/>
<path d="M227.899 32.5537C227.62 32.9579 226.16 34.6486 227.699 35.331" stroke="#29183B" stroke-width="0.69" stroke-miterlimit="10" stroke-linecap="round"/>
<path d="M230.75 37.3041C231.184 37.3041 231.901 36.7434 232.271 36.2349" stroke="#29183B" stroke-width="0.69" stroke-miterlimit="10" stroke-linecap="round"/>
<path d="M242.016 27.6986C242.016 24.5605 237.639 22.2222 234.592 22.2222C229.741 22.2222 223.83 23.4044 222.857 23.7478C221.222 24.3171 220.944 26.06 220.944 26.6424C220.944 29.0851 221.814 30.6064 224.526 30.9888C224.711 30.1272 225.031 29.3 225.473 28.5375C226.224 28.249 227.052 28.2351 227.812 28.4984C228.498 28.7374 234.236 31.4409 238.482 31.4409C239.047 32.2362 240.29 37.0912 239.925 39.1514C241.168 39.2252 243.459 35.1788 243.576 33.0664C243.602 32.3415 243.459 31.6204 243.157 30.9608C242.855 30.3012 242.403 29.7214 241.837 29.2677C241.894 28.8113 242.016 27.9464 242.016 27.6986Z" fill="#29183B"/>
<path d="M238.882 35.3915C239.981 35.3915 240.872 34.5002 240.872 33.4008C240.872 32.3014 239.981 31.4102 238.882 31.4102C237.782 31.4102 236.891 32.3014 236.891 33.4008C236.891 34.5002 237.782 35.3915 238.882 35.3915Z" fill="#F8CDBA"/>
<path d="M241.872 64.382C236.891 71.9926 209.961 83.9973 207.127 83.9973C199.612 83.9973 177.363 59.3055 176.094 56.6715C177.559 55.1068 180.679 51.7905 181.166 51.7905C181.653 51.7905 202.833 66.4292 206.836 66.4292C210.839 66.4292 229.811 53.0814 232.28 52.4816" fill="#9A41FE"/>
<path d="M225.569 56.3019C228.85 54.2634 231.463 52.677 232.28 52.4814" stroke="#29183B" stroke-linecap="round" stroke-linejoin="round"/>
<path d="M219.932 78.9206C228.624 74.7437 238.973 68.8239 241.872 64.3906" stroke="#29183B" stroke-linecap="round" stroke-linejoin="round"/>
<path d="M218.528 89.6912C218.706 87.9918 227.512 75.07 229.211 74.0703C227.407 75.0743 220.579 78.5384 219.932 78.9209C219.553 79.9336 218.528 89.6912 218.528 89.6912Z" fill="#1F161E"/>
</g>
</g>
<mask id="mask3_172_2" style="mask-type:luminance" maskUnits="userSpaceOnUse" x="152" y="1" width="47" height="26">
<path d="M199 1H152V26.4246H199V1Z" fill="white"/>
</mask>
<g mask="url(#mask3_172_2)">
<path d="M192.922 26.4248L186.845 21.0562H193.044L192.922 26.4248Z" fill="#8207E8"/>
<path d="M160.379 21.6638H190.621C195.249 21.6638 199 17.9124 199 13.2849V9.37897C199 4.75139 195.249 1 190.621 1H160.379C155.751 1 152 4.75139 152 9.37897V13.2849C152 17.9124 155.751 21.6638 160.379 21.6638Z" fill="#8207E8"/>
<path d="M181.78 13.1553C182.787 13.1553 183.603 12.339 183.603 11.332C183.603 10.3251 182.787 9.50879 181.78 9.50879C180.773 9.50879 179.957 10.3251 179.957 11.332C179.957 12.339 180.773 13.1553 181.78 13.1553Z" fill="white"/>
<path d="M175.5 13.1553C176.507 13.1553 177.323 12.339 177.323 11.332C177.323 10.3251 176.507 9.50879 175.5 9.50879C174.493 9.50879 173.677 10.3251 173.677 11.332C173.677 12.339 174.493 13.1553 175.5 13.1553Z" fill="white"/>
<path d="M169.22 13.1553C170.227 13.1553 171.043 12.339 171.043 11.332C171.043 10.3251 170.227 9.50879 169.22 9.50879C168.213 9.50879 167.397 10.3251 167.397 11.332C167.397 12.339 168.213 13.1553 169.22 13.1553Z" fill="white"/>
</g>
</g>
<defs>
<clipPath id="clip0_172_2">
<rect width="262" height="271" fill="white"/>
</clipPath>
</defs>
</svg>
