<svg width="22" height="6" viewBox="0 0 22 6" fill="none" xmlns="http://www.w3.org/2000/svg">
<path d="M19.0002 5.66658C17.5274 5.66658 16.3335 4.47268 16.3335 2.99992C16.3335 1.52716 17.5274 0.333252 19.0002 0.333252C20.4729 0.333252 21.6668 1.52716 21.6668 2.99992C21.6668 3.70716 21.3859 4.38544 20.8858 4.88554C20.3857 5.38563 19.7074 5.66658 19.0002 5.66658ZM11.0002 5.66658C9.5274 5.66658 8.3335 4.47268 8.3335 2.99992C8.3335 1.52716 9.5274 0.333252 11.0002 0.333252C12.4729 0.333252 13.6668 1.52716 13.6668 2.99992C13.6668 3.70716 13.3859 4.38544 12.8858 4.88554C12.3857 5.38563 11.7074 5.66658 11.0002 5.66658ZM3.00016 5.66658C1.5274 5.66658 0.333496 4.47268 0.333496 2.99992C0.333496 1.52716 1.5274 0.333252 3.00016 0.333252C4.47292 0.333252 5.66683 1.52716 5.66683 2.99992C5.66683 3.70716 5.38588 4.38544 4.88578 4.88554C4.38568 5.38563 3.70741 5.66658 3.00016 5.66658Z" fill="#29183B"/>
</svg>
